<?xml version="1.0" encoding="UTF-8" standalone="no"?><svg xmlns="http://www.w3.org/2000/svg" xmlns:xlink="http://www.w3.org/1999/xlink" contentScriptType="application/ecmascript" contentStyleType="text/css" height="2714px" preserveAspectRatio="none" style="width:1638px;height:2714px;" version="1.1" viewBox="0 0 1638 2714" width="1638px" zoomAndPan="magnify"><defs><filter height="300%" id="f1buti1hgh01su" width="300%" x="-1" y="-1"><feGaussianBlur result="blurOut" stdDeviation="2.0"/><feColorMatrix in="blurOut" result="blurOut2" type="matrix" values="0 0 0 0 0 0 0 0 0 0 0 0 0 0 0 0 0 0 .4 0"/><feOffset dx="4.0" dy="4.0" in="blurOut2" result="blurOut3"/><feBlend in="SourceGraphic" in2="blurOut3" mode="normal"/></filter></defs><g><text fill="#000000" font-family="sans-serif" font-size="18" lengthAdjust="spacingAndGlyphs" textLength="534" x="552.75" y="26.708">PDPA - Consent Withdrawal and Data Subject Rights (DSAR)</text><rect fill="#FFFFFF" filter="url(#f1buti1hgh01su)" height="578.1328" style="stroke: #000000; stroke-width: 2.0;" width="1605.5" x="21" y="820.8359"/><rect fill="#FFFFFF" height="172.4688" style="stroke: none; stroke-width: 1.0;" width="1605.5" x="21" y="1083.1641"/><rect fill="#FFFFFF" height="143.3359" style="stroke: none; stroke-width: 1.0;" width="1605.5" x="21" y="1255.6328"/><rect fill="#FFFFFF" filter="url(#f1buti1hgh01su)" height="217.7344" style="stroke: #000000; stroke-width: 2.0;" width="726.5" x="471.5" y="1623.0313"/><rect fill="#FFFFFF" height="114.2031" style="stroke: none; stroke-width: 1.0;" width="726.5" x="471.5" y="1726.5625"/><rect fill="#FFFFFF" filter="url(#f1buti1hgh01su)" height="491.0156" style="stroke: #000000; stroke-width: 2.0;" width="1187" x="21" y="1995.4297"/><rect fill="#FFFFFF" height="59.0703" style="stroke: none; stroke-width: 1.0;" width="1187" x="21" y="2041.6953"/><rect fill="#FFFFFF" height="113.3359" style="stroke: none; stroke-width: 1.0;" width="1187" x="21" y="2100.7656"/><rect fill="#FFFFFF" height="171.4688" style="stroke: none; stroke-width: 1.0;" width="1187" x="21" y="2214.1016"/><rect fill="#FFFFFF" filter="url(#f1buti1hgh01su)" height="46.2656" style="stroke: #000000; stroke-width: 2.0;" width="726.5" x="471.5" y="2278.0391"/><rect fill="#FFFFFF" height="43.9375" style="stroke: none; stroke-width: 1.0;" width="1187" x="21" y="2385.5703"/><rect fill="#FFFFFF" height="56.9375" style="stroke: none; stroke-width: 1.0;" width="1187" x="21" y="2429.5078"/><line style="stroke: #A80036; stroke-width: 1.0; stroke-dasharray: 5.0,5.0;" x1="114" x2="114" y1="73.25" y2="2674.375"/><line style="stroke: #A80036; stroke-width: 1.0; stroke-dasharray: 5.0,5.0;" x1="572.5" x2="572.5" y1="73.25" y2="2674.375"/><line style="stroke: #A80036; stroke-width: 1.0; stroke-dasharray: 5.0,5.0;" x1="1062" x2="1062" y1="73.25" y2="2674.375"/><line style="stroke: #A80036; stroke-width: 1.0; stroke-dasharray: 5.0,5.0;" x1="1314" x2="1314" y1="73.25" y2="2674.375"/><rect fill="#ADD8E6" filter="url(#f1buti1hgh01su)" height="30.2969" style="stroke: #A80036; stroke-width: 1.5;" width="163" x="31" y="37.9531"/><text fill="#000000" font-family="sans-serif" font-size="14" lengthAdjust="spacingAndGlyphs" textLength="149" x="38" y="57.9482">Holder (Mobile Wallet)</text><rect fill="#ADD8E6" filter="url(#f1buti1hgh01su)" height="30.2969" style="stroke: #A80036; stroke-width: 1.5;" width="163" x="31" y="2673.375"/><text fill="#000000" font-family="sans-serif" font-size="14" lengthAdjust="spacingAndGlyphs" textLength="149" x="38" y="2693.3701">Holder (Mobile Wallet)</text><rect fill="#90EE90" filter="url(#f1buti1hgh01su)" height="30.2969" style="stroke: #A80036; stroke-width: 1.5;" width="178" x="481.5" y="37.9531"/><text fill="#000000" font-family="sans-serif" font-size="14" lengthAdjust="spacingAndGlyphs" textLength="164" x="488.5" y="57.9482">Portal Center / Backend</text><rect fill="#90EE90" filter="url(#f1buti1hgh01su)" height="30.2969" style="stroke: #A80036; stroke-width: 1.5;" width="178" x="481.5" y="2673.375"/><text fill="#000000" font-family="sans-serif" font-size="14" lengthAdjust="spacingAndGlyphs" textLength="164" x="488.5" y="2693.3701">Portal Center / Backend</text><rect fill="#FFA500" filter="url(#f1buti1hgh01su)" height="30.2969" style="stroke: #A80036; stroke-width: 1.5;" width="247" x="937" y="37.9531"/><text fill="#000000" font-family="sans-serif" font-size="14" lengthAdjust="spacingAndGlyphs" textLength="233" x="944" y="57.9482">Credential Platform (Procivis Core)</text><rect fill="#FFA500" filter="url(#f1buti1hgh01su)" height="30.2969" style="stroke: #A80036; stroke-width: 1.5;" width="247" x="937" y="2673.375"/><text fill="#000000" font-family="sans-serif" font-size="14" lengthAdjust="spacingAndGlyphs" textLength="233" x="944" y="2693.3701">Credential Platform (Procivis Core)</text><rect fill="#FEFECE" filter="url(#f1buti1hgh01su)" height="30.2969" style="stroke: #A80036; stroke-width: 1.5;" width="229" x="1198" y="37.9531"/><text fill="#000000" font-family="sans-serif" font-size="14" lengthAdjust="spacingAndGlyphs" textLength="215" x="1205" y="57.9482">Verifier System (data controller)</text><rect fill="#FEFECE" filter="url(#f1buti1hgh01su)" height="30.2969" style="stroke: #A80036; stroke-width: 1.5;" width="229" x="1198" y="2673.375"/><text fill="#000000" font-family="sans-serif" font-size="14" lengthAdjust="spacingAndGlyphs" textLength="215" x="1205" y="2693.3701">Verifier System (data controller)</text><path d="M8,88.25 L8,158.25 L676,158.25 L676,98.25 L666,88.25 L8,88.25 " fill="#F5DEB3" filter="url(#f1buti1hgh01su)" style="stroke: #A80036; stroke-width: 1.0;"/><path d="M666,88.25 L666,98.25 L676,98.25 L666,88.25 " fill="#F5DEB3" style="stroke: #A80036; stroke-width: 1.0;"/><text fill="#000000" font-family="sans-serif" font-size="13" lengthAdjust="spacingAndGlyphs" textLength="178" x="14" y="105.3169">[SPEC] PDPA rights covered</text><text fill="#000000" font-family="sans-serif" font-size="13" lengthAdjust="spacingAndGlyphs" textLength="521" x="14" y="120.4497">Part A - Withdraw VP consent (data already shared with a verifier)  [POC-accurate]</text><text fill="#000000" font-family="sans-serif" font-size="13" lengthAdjust="spacingAndGlyphs" textLength="432" x="14" y="135.5825">Part B - Withdraw issuance consent (may trigger revoke)  [overview]</text><text fill="#000000" font-family="sans-serif" font-size="13" lengthAdjust="spacingAndGlyphs" textLength="647" x="14" y="150.7153">Part C - Data Subject Rights: access / rectify / erase / restrict / portability / object (s.30-36)  [overview]</text><path d="M12,172.7813 L12,197.7813 L1164,197.7813 L1164,182.7813 L1154,172.7813 L12,172.7813 " fill="#FFA500" filter="url(#f1buti1hgh01su)" style="stroke: #A80036; stroke-width: 1.0;"/><path d="M1154,172.7813 L1154,182.7813 L1164,182.7813 L1154,172.7813 " fill="#FFA500" style="stroke: #A80036; stroke-width: 1.0;"/><text fill="#000000" font-family="sans-serif" font-size="13" lengthAdjust="spacingAndGlyphs" textLength="485" x="339" y="189.8481">A. Withdraw VP consent - data already shared with a verifier  [POC-accurate]</text><path d="M29,211.9141 L29,236.9141 L656,236.9141 L656,221.9141 L646,211.9141 L29,211.9141 " fill="#ADD8E6" filter="url(#f1buti1hgh01su)" style="stroke: #A80036; stroke-width: 1.0;"/><path d="M646,211.9141 L646,221.9141 L656,221.9141 L646,211.9141 " fill="#ADD8E6" style="stroke: #A80036; stroke-width: 1.0;"/><text fill="#000000" font-family="sans-serif" font-size="13" lengthAdjust="spacingAndGlyphs" textLength="428" x="122.25" y="228.981">A1. Holder requests withdrawal of a past presentation (VP consent)</text><line style="stroke: #A80036; stroke-width: 1.0;" x1="114.5" x2="156.5" y1="282.3125" y2="282.3125"/><line style="stroke: #A80036; stroke-width: 1.0;" x1="156.5" x2="156.5" y1="282.3125" y2="295.3125"/><line style="stroke: #A80036; stroke-width: 1.0;" x1="115.5" x2="156.5" y1="295.3125" y2="295.3125"/><polygon fill="#A80036" points="125.5,291.3125,115.5,295.3125,125.5,299.3125,121.5,295.3125" style="stroke: #A80036; stroke-width: 1.0;"/><text fill="#000000" font-family="sans-serif" font-size="13" lengthAdjust="spacingAndGlyphs" textLength="245" x="121.5" y="262.1138">Select a past presentation to withdraw</text><text fill="#000000" font-family="sans-serif" font-size="13" lengthAdjust="spacingAndGlyphs" textLength="99" x="121.5" y="277.2466">proofId , verifier</text><polygon fill="#A80036" points="1050.5,335.5781,1060.5,339.5781,1050.5,343.5781,1054.5,339.5781" style="stroke: #A80036; stroke-width: 1.0;"/><line style="stroke: #A80036; stroke-width: 1.0;" x1="114.5" x2="1056.5" y1="339.5781" y2="339.5781"/><text fill="#000000" font-family="sans-serif" font-size="13" lengthAdjust="spacingAndGlyphs" textLength="226" x="121.5" y="319.3794">GET /api/proof-request/v1/{proofId}</text><text fill="#000000" font-family="sans-serif" font-size="13" lengthAdjust="spacingAndGlyphs" textLength="229" x="121.5" y="334.5122">(fetch proof schema name / details)</text><polygon fill="#A80036" points="125.5,364.7109,115.5,368.7109,125.5,372.7109,121.5,368.7109" style="stroke: #A80036; stroke-width: 1.0;"/><line style="stroke: #A80036; stroke-width: 1.0; stroke-dasharray: 2.0,2.0;" x1="119.5" x2="1061.5" y1="368.7109" y2="368.7109"/><text fill="#000000" font-family="sans-serif" font-size="13" lengthAdjust="spacingAndGlyphs" textLength="185" x="131.5" y="363.645">Proof details (schema name)</text><polygon fill="#A80036" points="560.5,408.9766,570.5,412.9766,560.5,416.9766,564.5,412.9766" style="stroke: #A80036; stroke-width: 1.0;"/><line style="stroke: #A80036; stroke-width: 1.0;" x1="114.5" x2="566.5" y1="412.9766" y2="412.9766"/><text fill="#000000" font-family="sans-serif" font-size="13" lengthAdjust="spacingAndGlyphs" textLength="217" x="121.5" y="392.7778">POST /api/portal/withdraw-consent</text><text fill="#000000" font-family="sans-serif" font-size="13" lengthAdjust="spacingAndGlyphs" textLength="369" x="121.5" y="407.9106">proofId , verifierName , verifierOrgId , holderOrgId , reason</text><path d="M429,425.9766 L429,450.9766 L712,450.9766 L712,435.9766 L702,425.9766 L429,425.9766 " fill="#90EE90" filter="url(#f1buti1hgh01su)" style="stroke: #A80036; stroke-width: 1.0;"/><path d="M702,425.9766 L702,435.9766 L712,435.9766 L702,425.9766 " fill="#90EE90" style="stroke: #A80036; stroke-width: 1.0;"/><text fill="#000000" font-family="sans-serif" font-size="13" lengthAdjust="spacingAndGlyphs" textLength="262" x="435" y="443.0435">A2. Portal records the withdrawal request</text><line style="stroke: #A80036; stroke-width: 1.0;" x1="572.5" x2="614.5" y1="511.5078" y2="511.5078"/><line style="stroke: #A80036; stroke-width: 1.0;" x1="614.5" x2="614.5" y1="511.5078" y2="524.5078"/><line style="stroke: #A80036; stroke-width: 1.0;" x1="573.5" x2="614.5" y1="524.5078" y2="524.5078"/><polygon fill="#A80036" points="583.5,520.5078,573.5,524.5078,583.5,528.5078,579.5,524.5078" style="stroke: #A80036; stroke-width: 1.0;"/><text fill="#000000" font-family="sans-serif" font-size="13" lengthAdjust="spacingAndGlyphs" textLength="266" x="579.5" y="476.1763">[DATA STORE] Insert consent_withdrawals</text><text fill="#000000" font-family="sans-serif" font-size="13" lengthAdjust="spacingAndGlyphs" textLength="392" x="579.5" y="491.3091">id , proofId , holderOrgId , verifierOrgId , verifierName , reason</text><text fill="#000000" font-family="sans-serif" font-size="13" lengthAdjust="spacingAndGlyphs" textLength="209" x="579.5" y="506.4419">status = PENDING , requestedAt</text><line style="stroke: #A80036; stroke-width: 1.0;" x1="572.5" x2="614.5" y1="583.9063" y2="583.9063"/><line style="stroke: #A80036; stroke-width: 1.0;" x1="614.5" x2="614.5" y1="583.9063" y2="596.9063"/><line style="stroke: #A80036; stroke-width: 1.0;" x1="573.5" x2="614.5" y1="596.9063" y2="596.9063"/><polygon fill="#A80036" points="583.5,592.9063,573.5,596.9063,583.5,600.9063,579.5,596.9063" style="stroke: #A80036; stroke-width: 1.0;"/><text fill="#000000" font-family="sans-serif" font-size="13" lengthAdjust="spacingAndGlyphs" textLength="313" x="579.5" y="548.5747">[AUDIT LOG] Store consent withdrawal requested</text><text fill="#000000" font-family="sans-serif" font-size="13" lengthAdjust="spacingAndGlyphs" textLength="325" x="579.5" y="563.7075">eventType = CONSENT_WITHDRAWAL_REQUESTED</text><text fill="#000000" font-family="sans-serif" font-size="13" lengthAdjust="spacingAndGlyphs" textLength="310" x="579.5" y="578.8403">withdrawalId , proofId , holderOrgId , requestedAt</text><polygon fill="#A80036" points="125.5,622.0391,115.5,626.0391,125.5,630.0391,121.5,626.0391" style="stroke: #A80036; stroke-width: 1.0;"/><line style="stroke: #A80036; stroke-width: 1.0; stroke-dasharray: 2.0,2.0;" x1="119.5" x2="571.5" y1="626.0391" y2="626.0391"/><text fill="#000000" font-family="sans-serif" font-size="13" lengthAdjust="spacingAndGlyphs" textLength="298" x="131.5" y="620.9731">withdrawalId , status = PENDING , requestedAt</text><path d="M471,639.0391 L471,664.0391 L1415,664.0391 L1415,649.0391 L1405,639.0391 L471,639.0391 " fill="#90EE90" filter="url(#f1buti1hgh01su)" style="stroke: #A80036; stroke-width: 1.0;"/><path d="M1405,639.0391 L1405,649.0391 L1415,649.0391 L1405,639.0391 " fill="#90EE90" style="stroke: #A80036; stroke-width: 1.0;"/><text fill="#000000" font-family="sans-serif" font-size="13" lengthAdjust="spacingAndGlyphs" textLength="375" x="749.25" y="656.106">A3. Portal notifies the Verifier (data controller) via webhook</text><polygon fill="#A80036" points="1302.5,705.4375,1312.5,709.4375,1302.5,713.4375,1306.5,709.4375" style="stroke: #A80036; stroke-width: 1.0;"/><line style="stroke: #A80036; stroke-width: 1.0;" x1="572.5" x2="1308.5" y1="709.4375" y2="709.4375"/><text fill="#000000" font-family="sans-serif" font-size="13" lengthAdjust="spacingAndGlyphs" textLength="189" x="579.5" y="689.2388">Webhook - consent withdrawn</text><text fill="#000000" font-family="sans-serif" font-size="13" lengthAdjust="spacingAndGlyphs" textLength="241" x="579.5" y="704.3716">withdrawalId , proofId , holder , reason</text><line style="stroke: #A80036; stroke-width: 1.0;" x1="572.5" x2="614.5" y1="753.7031" y2="753.7031"/><line style="stroke: #A80036; stroke-width: 1.0;" x1="614.5" x2="614.5" y1="753.7031" y2="766.7031"/><line style="stroke: #A80036; stroke-width: 1.0;" x1="573.5" x2="614.5" y1="766.7031" y2="766.7031"/><polygon fill="#A80036" points="583.5,762.7031,573.5,766.7031,583.5,770.7031,579.5,766.7031" style="stroke: #A80036; stroke-width: 1.0;"/><text fill="#000000" font-family="sans-serif" font-size="13" lengthAdjust="spacingAndGlyphs" textLength="277" x="579.5" y="733.5044">[DATA STORE] Update consent_withdrawals</text><text fill="#000000" font-family="sans-serif" font-size="13" lengthAdjust="spacingAndGlyphs" textLength="279" x="579.5" y="748.6372">webhook_sent_at , webhook_status = SENT</text><path d="M471,779.7031 L471,804.7031 L1415,804.7031 L1415,789.7031 L1405,779.7031 L471,779.7031 " fill="#90EE90" filter="url(#f1buti1hgh01su)" style="stroke: #A80036; stroke-width: 1.0;"/><path d="M1405,779.7031 L1405,789.7031 L1415,789.7031 L1405,779.7031 " fill="#90EE90" style="stroke: #A80036; stroke-width: 1.0;"/><text fill="#000000" font-family="sans-serif" font-size="13" lengthAdjust="spacingAndGlyphs" textLength="216" x="828.75" y="796.77">A4. Verifier acts on the withdrawal</text><path d="M21,820.8359 L85,820.8359 L85,827.8359 L75,837.8359 L21,837.8359 L21,820.8359 " fill="#EEEEEE" style="stroke: #000000; stroke-width: 1.0;"/><rect fill="none" height="578.1328" style="stroke: #000000; stroke-width: 2.0;" width="1605.5" x="21" y="820.8359"/><text fill="#000000" font-family="sans-serif" font-size="13" font-weight="bold" lengthAdjust="spacingAndGlyphs" textLength="19" x="36" y="833.9028">alt</text><text fill="#000000" font-family="sans-serif" font-size="11" font-weight="bold" lengthAdjust="spacingAndGlyphs" textLength="215" x="100" y="833.0464">[Verifier deletes the shared data]</text><line style="stroke: #A80036; stroke-width: 1.0;" x1="1314.5" x2="1356.5" y1="859.1016" y2="859.1016"/><line style="stroke: #A80036; stroke-width: 1.0;" x1="1356.5" x2="1356.5" y1="859.1016" y2="872.1016"/><line style="stroke: #A80036; stroke-width: 1.0;" x1="1315.5" x2="1356.5" y1="872.1016" y2="872.1016"/><polygon fill="#A80036" points="1325.5,868.1016,1315.5,872.1016,1325.5,876.1016,1321.5,872.1016" style="stroke: #A80036; stroke-width: 1.0;"/><text fill="#000000" font-family="sans-serif" font-size="13" lengthAdjust="spacingAndGlyphs" textLength="293" x="1321.5" y="854.0356">Delete stored VP / disclosed claims for proofId</text><polygon fill="#A80036" points="583.5,912.3672,573.5,916.3672,583.5,920.3672,579.5,916.3672" style="stroke: #A80036; stroke-width: 1.0;"/><line style="stroke: #A80036; stroke-width: 1.0;" x1="577.5" x2="1313.5" y1="916.3672" y2="916.3672"/><text fill="#000000" font-family="sans-serif" font-size="13" lengthAdjust="spacingAndGlyphs" textLength="369" x="589.5" y="896.1685">POST /api/portal/withdraw-consent/{withdrawalId}/callback</text><text fill="#000000" font-family="sans-serif" font-size="13" lengthAdjust="spacingAndGlyphs" textLength="117" x="589.5" y="911.3013">status = DELETED</text><line style="stroke: #A80036; stroke-width: 1.0;" x1="572.5" x2="614.5" y1="960.6328" y2="960.6328"/><line style="stroke: #A80036; stroke-width: 1.0;" x1="614.5" x2="614.5" y1="960.6328" y2="973.6328"/><line style="stroke: #A80036; stroke-width: 1.0;" x1="573.5" x2="614.5" y1="973.6328" y2="973.6328"/><polygon fill="#A80036" points="583.5,969.6328,573.5,973.6328,583.5,977.6328,579.5,973.6328" style="stroke: #A80036; stroke-width: 1.0;"/><text fill="#000000" font-family="sans-serif" font-size="13" lengthAdjust="spacingAndGlyphs" textLength="397" x="579.5" y="940.4341">[DATA STORE] Update status = ACKNOWLEDGED -&gt; DELETED</text><text fill="#000000" font-family="sans-serif" font-size="13" lengthAdjust="spacingAndGlyphs" textLength="62" x="579.5" y="955.5669">deletedAt</text><line style="stroke: #A80036; stroke-width: 1.0;" x1="572.5" x2="614.5" y1="1033.0313" y2="1033.0313"/><line style="stroke: #A80036; stroke-width: 1.0;" x1="614.5" x2="614.5" y1="1033.0313" y2="1046.0313"/><line style="stroke: #A80036; stroke-width: 1.0;" x1="573.5" x2="614.5" y1="1046.0313" y2="1046.0313"/><polygon fill="#A80036" points="583.5,1042.0313,573.5,1046.0313,583.5,1050.0313,579.5,1046.0313" style="stroke: #A80036; stroke-width: 1.0;"/><text fill="#000000" font-family="sans-serif" font-size="13" lengthAdjust="spacingAndGlyphs" textLength="316" x="579.5" y="997.6997">[AUDIT LOG] Store consent withdrawal completed</text><text fill="#000000" font-family="sans-serif" font-size="13" lengthAdjust="spacingAndGlyphs" textLength="305" x="579.5" y="1012.8325">eventType = CONSENT_WITHDRAWAL_DELETED</text><text fill="#000000" font-family="sans-serif" font-size="13" lengthAdjust="spacingAndGlyphs" textLength="151" x="579.5" y="1027.9653">withdrawalId , deletedAt</text><polygon fill="#A80036" points="125.5,1071.1641,115.5,1075.1641,125.5,1079.1641,121.5,1075.1641" style="stroke: #A80036; stroke-width: 1.0;"/><line style="stroke: #A80036; stroke-width: 1.0;" x1="119.5" x2="571.5" y1="1075.1641" y2="1075.1641"/><text fill="#000000" font-family="sans-serif" font-size="13" lengthAdjust="spacingAndGlyphs" textLength="158" x="131.5" y="1070.0981">Notify status = DELETED</text><line style="stroke: #000000; stroke-width: 1.0; stroke-dasharray: 2.0,2.0;" x1="21" x2="1626.5" y1="1084.1641" y2="1084.1641"/><text fill="#000000" font-family="sans-serif" font-size="11" font-weight="bold" lengthAdjust="spacingAndGlyphs" textLength="325" x="26" y="1094.3745">[Verifier rejects (overriding lawful basis to retain)]</text><polygon fill="#A80036" points="583.5,1130.2344,573.5,1134.2344,583.5,1138.2344,579.5,1134.2344" style="stroke: #A80036; stroke-width: 1.0;"/><line style="stroke: #A80036; stroke-width: 1.0;" x1="577.5" x2="1313.5" y1="1134.2344" y2="1134.2344"/><text fill="#000000" font-family="sans-serif" font-size="13" lengthAdjust="spacingAndGlyphs" textLength="369" x="589.5" y="1114.0356">POST /api/portal/withdraw-consent/{withdrawalId}/callback</text><text fill="#000000" font-family="sans-serif" font-size="13" lengthAdjust="spacingAndGlyphs" textLength="215" x="589.5" y="1129.1685">status = REJECTED , rejectReason</text><line style="stroke: #A80036; stroke-width: 1.0;" x1="572.5" x2="614.5" y1="1163.3672" y2="1163.3672"/><line style="stroke: #A80036; stroke-width: 1.0;" x1="614.5" x2="614.5" y1="1163.3672" y2="1176.3672"/><line style="stroke: #A80036; stroke-width: 1.0;" x1="573.5" x2="614.5" y1="1176.3672" y2="1176.3672"/><polygon fill="#A80036" points="583.5,1172.3672,573.5,1176.3672,583.5,1180.3672,579.5,1176.3672" style="stroke: #A80036; stroke-width: 1.0;"/><text fill="#000000" font-family="sans-serif" font-size="13" lengthAdjust="spacingAndGlyphs" textLength="365" x="579.5" y="1158.3013">[DATA STORE] Update status = REJECTED , reject_reason</text><line style="stroke: #A80036; stroke-width: 1.0;" x1="572.5" x2="614.5" y1="1205.5" y2="1205.5"/><line style="stroke: #A80036; stroke-width: 1.0;" x1="614.5" x2="614.5" y1="1205.5" y2="1218.5"/><line style="stroke: #A80036; stroke-width: 1.0;" x1="573.5" x2="614.5" y1="1218.5" y2="1218.5"/><polygon fill="#A80036" points="583.5,1214.5,573.5,1218.5,583.5,1222.5,579.5,1218.5" style="stroke: #A80036; stroke-width: 1.0;"/><text fill="#000000" font-family="sans-serif" font-size="13" lengthAdjust="spacingAndGlyphs" textLength="392" x="579.5" y="1200.4341">[AUDIT LOG] eventType = CONSENT_WITHDRAWAL_REJECTED</text><polygon fill="#A80036" points="125.5,1243.6328,115.5,1247.6328,125.5,1251.6328,121.5,1247.6328" style="stroke: #A80036; stroke-width: 1.0;"/><line style="stroke: #A80036; stroke-width: 1.0;" x1="119.5" x2="571.5" y1="1247.6328" y2="1247.6328"/><text fill="#000000" font-family="sans-serif" font-size="13" lengthAdjust="spacingAndGlyphs" textLength="248" x="131.5" y="1242.5669">Notify status = REJECTED (with reason)</text><line style="stroke: #000000; stroke-width: 1.0; stroke-dasharray: 2.0,2.0;" x1="21" x2="1626.5" y1="1256.6328" y2="1256.6328"/><text fill="#000000" font-family="sans-serif" font-size="11" font-weight="bold" lengthAdjust="spacingAndGlyphs" textLength="338" x="26" y="1266.8433">[No verifier response within 30 days (auto-approve)]</text><line style="stroke: #A80036; stroke-width: 1.0;" x1="572.5" x2="614.5" y1="1306.7031" y2="1306.7031"/><line style="stroke: #A80036; stroke-width: 1.0;" x1="614.5" x2="614.5" y1="1306.7031" y2="1319.7031"/><line style="stroke: #A80036; stroke-width: 1.0;" x1="573.5" x2="614.5" y1="1319.7031" y2="1319.7031"/><polygon fill="#A80036" points="583.5,1315.7031,573.5,1319.7031,583.5,1323.7031,579.5,1319.7031" style="stroke: #A80036; stroke-width: 1.0;"/><text fill="#000000" font-family="sans-serif" font-size="13" lengthAdjust="spacingAndGlyphs" textLength="398" x="579.5" y="1286.5044">Scheduler auto-marks status = DELETED , auto_approved = 1</text><text fill="#000000" font-family="sans-serif" font-size="13" lengthAdjust="spacingAndGlyphs" textLength="266" x="579.5" y="1301.6372">(PENDING / ACKNOWLEDGED for 30 days)</text><line style="stroke: #A80036; stroke-width: 1.0;" x1="572.5" x2="614.5" y1="1348.8359" y2="1348.8359"/><line style="stroke: #A80036; stroke-width: 1.0;" x1="614.5" x2="614.5" y1="1348.8359" y2="1361.8359"/><line style="stroke: #A80036; stroke-width: 1.0;" x1="573.5" x2="614.5" y1="1361.8359" y2="1361.8359"/><polygon fill="#A80036" points="583.5,1357.8359,573.5,1361.8359,583.5,1365.8359,579.5,1361.8359" style="stroke: #A80036; stroke-width: 1.0;"/><text fill="#000000" font-family="sans-serif" font-size="13" lengthAdjust="spacingAndGlyphs" textLength="444" x="579.5" y="1343.77">[AUDIT LOG] eventType = CONSENT_WITHDRAWAL_AUTO_APPROVED</text><polygon fill="#A80036" points="125.5,1386.9688,115.5,1390.9688,125.5,1394.9688,121.5,1390.9688" style="stroke: #A80036; stroke-width: 1.0;"/><line style="stroke: #A80036; stroke-width: 1.0;" x1="119.5" x2="571.5" y1="1390.9688" y2="1390.9688"/><text fill="#000000" font-family="sans-serif" font-size="13" lengthAdjust="spacingAndGlyphs" textLength="266" x="131.5" y="1385.9028">Notify status = DELETED (auto-approved)</text><path d="M12,1410.9688 L12,1435.9688 L1164,1435.9688 L1164,1420.9688 L1154,1410.9688 L12,1410.9688 " fill="#FFA500" filter="url(#f1buti1hgh01su)" style="stroke: #A80036; stroke-width: 1.0;"/><path d="M1154,1410.9688 L1154,1420.9688 L1164,1420.9688 L1154,1410.9688 " fill="#FFA500" style="stroke: #A80036; stroke-width: 1.0;"/><text fill="#000000" font-family="sans-serif" font-size="13" lengthAdjust="spacingAndGlyphs" textLength="470" x="346.5" y="1428.0356">B. (overview) Withdraw ISSUANCE consent - may trigger credential revoke</text><path d="M12,1450.1016 L12,1505.1016 L1164,1505.1016 L1164,1460.1016 L1154,1450.1016 L12,1450.1016 " fill="#F5DEB3" filter="url(#f1buti1hgh01su)" style="stroke: #A80036; stroke-width: 1.0;"/><path d="M1154,1450.1016 L1154,1460.1016 L1164,1460.1016 L1154,1450.1016 " fill="#F5DEB3" style="stroke: #A80036; stroke-width: 1.0;"/><text fill="#000000" font-family="sans-serif" font-size="13" lengthAdjust="spacingAndGlyphs" textLength="184" x="373" y="1467.1685">[SPEC] Different from Part A:</text><text fill="#000000" font-family="sans-serif" font-size="13" lengthAdjust="spacingAndGlyphs" textLength="335" x="373" y="1482.3013">Part A withdraws data already SHARED with a verifier</text><text fill="#000000" font-family="sans-serif" font-size="13" lengthAdjust="spacingAndGlyphs" textLength="417" x="373" y="1497.4341">Part B withdraws the lawful basis for HOLDING the credential itself</text><polygon fill="#A80036" points="560.5,1546.7656,570.5,1550.7656,560.5,1554.7656,564.5,1550.7656" style="stroke: #A80036; stroke-width: 1.0;"/><line style="stroke: #A80036; stroke-width: 1.0;" x1="114.5" x2="566.5" y1="1550.7656" y2="1550.7656"/><text fill="#000000" font-family="sans-serif" font-size="13" lengthAdjust="spacingAndGlyphs" textLength="172" x="121.5" y="1530.5669">Withdraw issuance consent</text><text fill="#000000" font-family="sans-serif" font-size="13" lengthAdjust="spacingAndGlyphs" textLength="298" x="121.5" y="1545.6997">credentialId , reason = CONSENT_WITHDRAWN</text><line style="stroke: #A80036; stroke-width: 1.0;" x1="572.5" x2="614.5" y1="1595.0313" y2="1595.0313"/><line style="stroke: #A80036; stroke-width: 1.0;" x1="614.5" x2="614.5" y1="1595.0313" y2="1608.0313"/><line style="stroke: #A80036; stroke-width: 1.0;" x1="573.5" x2="614.5" y1="1608.0313" y2="1608.0313"/><polygon fill="#A80036" points="583.5,1604.0313,573.5,1608.0313,583.5,1612.0313,579.5,1608.0313" style="stroke: #A80036; stroke-width: 1.0;"/><text fill="#000000" font-family="sans-serif" font-size="13" lengthAdjust="spacingAndGlyphs" textLength="115" x="579.5" y="1574.8325">Check lawful basis</text><text fill="#000000" font-family="sans-serif" font-size="13" lengthAdjust="spacingAndGlyphs" textLength="287" x="579.5" y="1589.9653">is consent the ONLY basis for this credential?</text><path d="M471.5,1623.0313 L535.5,1623.0313 L535.5,1630.0313 L525.5,1640.0313 L471.5,1640.0313 L471.5,1623.0313 " fill="#EEEEEE" style="stroke: #000000; stroke-width: 1.0;"/><rect fill="none" height="217.7344" style="stroke: #000000; stroke-width: 2.0;" width="726.5" x="471.5" y="1623.0313"/><text fill="#000000" font-family="sans-serif" font-size="13" font-weight="bold" lengthAdjust="spacingAndGlyphs" textLength="19" x="486.5" y="1636.0981">alt</text><text fill="#000000" font-family="sans-serif" font-size="11" font-weight="bold" lengthAdjust="spacingAndGlyphs" textLength="216" x="550.5" y="1635.2417">[Consent is the only lawful basis]</text><polygon fill="#A80036" points="1050.5,1672.4297,1060.5,1676.4297,1050.5,1680.4297,1054.5,1676.4297" style="stroke: #A80036; stroke-width: 1.0;"/><line style="stroke: #A80036; stroke-width: 1.0;" x1="572.5" x2="1056.5" y1="1676.4297" y2="1676.4297"/><text fill="#000000" font-family="sans-serif" font-size="13" lengthAdjust="spacingAndGlyphs" textLength="113" x="579.5" y="1656.231">Revoke credential</text><text fill="#000000" font-family="sans-serif" font-size="13" lengthAdjust="spacingAndGlyphs" textLength="342" x="579.5" y="1671.3638">(POST /api/credential/v1/{id}/revoke) - see Lifecycle-1</text><line style="stroke: #A80036; stroke-width: 1.0;" x1="572.5" x2="614.5" y1="1705.5625" y2="1705.5625"/><line style="stroke: #A80036; stroke-width: 1.0;" x1="614.5" x2="614.5" y1="1705.5625" y2="1718.5625"/><line style="stroke: #A80036; stroke-width: 1.0;" x1="573.5" x2="614.5" y1="1718.5625" y2="1718.5625"/><polygon fill="#A80036" points="583.5,1714.5625,573.5,1718.5625,583.5,1722.5625,579.5,1718.5625" style="stroke: #A80036; stroke-width: 1.0;"/><text fill="#000000" font-family="sans-serif" font-size="13" lengthAdjust="spacingAndGlyphs" textLength="472" x="579.5" y="1700.4966">[AUDIT LOG] eventType = CREDENTIAL_REVOKED_CONSENT_WITHDRAWN</text><line style="stroke: #000000; stroke-width: 1.0; stroke-dasharray: 2.0,2.0;" x1="471.5" x2="1198" y1="1727.5625" y2="1727.5625"/><text fill="#000000" font-family="sans-serif" font-size="11" font-weight="bold" lengthAdjust="spacingAndGlyphs" textLength="234" x="476.5" y="1737.7729">[Other lawful basis (e.g. legal duty)]</text><line style="stroke: #A80036; stroke-width: 1.0;" x1="572.5" x2="614.5" y1="1777.6328" y2="1777.6328"/><line style="stroke: #A80036; stroke-width: 1.0;" x1="614.5" x2="614.5" y1="1777.6328" y2="1790.6328"/><line style="stroke: #A80036; stroke-width: 1.0;" x1="573.5" x2="614.5" y1="1790.6328" y2="1790.6328"/><polygon fill="#A80036" points="583.5,1786.6328,573.5,1790.6328,583.5,1794.6328,579.5,1790.6328" style="stroke: #A80036; stroke-width: 1.0;"/><text fill="#000000" font-family="sans-serif" font-size="13" lengthAdjust="spacingAndGlyphs" textLength="99" x="579.5" y="1757.4341">Keep credential</text><text fill="#000000" font-family="sans-serif" font-size="13" lengthAdjust="spacingAndGlyphs" textLength="255" x="579.5" y="1772.5669">stop only the consent-based processing</text><line style="stroke: #A80036; stroke-width: 1.0;" x1="572.5" x2="614.5" y1="1819.7656" y2="1819.7656"/><line style="stroke: #A80036; stroke-width: 1.0;" x1="614.5" x2="614.5" y1="1819.7656" y2="1832.7656"/><line style="stroke: #A80036; stroke-width: 1.0;" x1="573.5" x2="614.5" y1="1832.7656" y2="1832.7656"/><polygon fill="#A80036" points="583.5,1828.7656,573.5,1832.7656,583.5,1836.7656,579.5,1832.7656" style="stroke: #A80036; stroke-width: 1.0;"/><text fill="#000000" font-family="sans-serif" font-size="13" lengthAdjust="spacingAndGlyphs" textLength="476" x="579.5" y="1814.6997">[AUDIT LOG] eventType = CONSENT_WITHDRAWN_PROCESSING_STOPPED</text><path d="M12,1852.7656 L12,1877.7656 L1164,1877.7656 L1164,1862.7656 L1154,1852.7656 L12,1852.7656 " fill="#FFA500" filter="url(#f1buti1hgh01su)" style="stroke: #A80036; stroke-width: 1.0;"/><path d="M1154,1852.7656 L1154,1862.7656 L1164,1862.7656 L1154,1852.7656 " fill="#FFA500" style="stroke: #A80036; stroke-width: 1.0;"/><text fill="#000000" font-family="sans-serif" font-size="13" lengthAdjust="spacingAndGlyphs" textLength="362" x="400.5" y="1869.8325">C. (overview) Data Subject Rights (DSAR) - PDPA s.30-36</text><polygon fill="#A80036" points="560.5,1919.1641,570.5,1923.1641,560.5,1927.1641,564.5,1923.1641" style="stroke: #A80036; stroke-width: 1.0;"/><line style="stroke: #A80036; stroke-width: 1.0;" x1="114.5" x2="566.5" y1="1923.1641" y2="1923.1641"/><text fill="#000000" font-family="sans-serif" font-size="13" lengthAdjust="spacingAndGlyphs" textLength="89" x="121.5" y="1902.9653">DSAR request</text><text fill="#000000" font-family="sans-serif" font-size="13" lengthAdjust="spacingAndGlyphs" textLength="434" x="121.5" y="1918.0981">type = ACCESS / RECTIFY / ERASE / RESTRICT / PORTABILITY / OBJECT</text><line style="stroke: #A80036; stroke-width: 1.0;" x1="572.5" x2="614.5" y1="1967.4297" y2="1967.4297"/><line style="stroke: #A80036; stroke-width: 1.0;" x1="614.5" x2="614.5" y1="1967.4297" y2="1980.4297"/><line style="stroke: #A80036; stroke-width: 1.0;" x1="573.5" x2="614.5" y1="1980.4297" y2="1980.4297"/><polygon fill="#A80036" points="583.5,1976.4297,573.5,1980.4297,583.5,1984.4297,579.5,1980.4297" style="stroke: #A80036; stroke-width: 1.0;"/><text fill="#000000" font-family="sans-serif" font-size="13" lengthAdjust="spacingAndGlyphs" textLength="131" x="579.5" y="1947.231">Verify holder identity</text><text fill="#000000" font-family="sans-serif" font-size="13" lengthAdjust="spacingAndGlyphs" textLength="367" x="579.5" y="1962.3638">[DATA STORE] Log DSAR ticket (type , requestedAt , SLA)</text><path d="M21,1995.4297 L85,1995.4297 L85,2002.4297 L75,2012.4297 L21,2012.4297 L21,1995.4297 " fill="#EEEEEE" style="stroke: #000000; stroke-width: 1.0;"/><rect fill="none" height="491.0156" style="stroke: #000000; stroke-width: 2.0;" width="1187" x="21" y="1995.4297"/><text fill="#000000" font-family="sans-serif" font-size="13" font-weight="bold" lengthAdjust="spacingAndGlyphs" textLength="19" x="36" y="2008.4966">alt</text><text fill="#000000" font-family="sans-serif" font-size="11" font-weight="bold" lengthAdjust="spacingAndGlyphs" textLength="105" x="100" y="2007.6401">[type = ACCESS]</text><polygon fill="#A80036" points="125.5,2029.6953,115.5,2033.6953,125.5,2037.6953,121.5,2033.6953" style="stroke: #A80036; stroke-width: 1.0;"/><line style="stroke: #A80036; stroke-width: 1.0;" x1="119.5" x2="571.5" y1="2033.6953" y2="2033.6953"/><text fill="#000000" font-family="sans-serif" font-size="13" lengthAdjust="spacingAndGlyphs" textLength="373" x="131.5" y="2028.6294">Provide copy of personal data + processing / audit records</text><line style="stroke: #000000; stroke-width: 1.0; stroke-dasharray: 2.0,2.0;" x1="21" x2="1208" y1="2042.6953" y2="2042.6953"/><text fill="#000000" font-family="sans-serif" font-size="11" font-weight="bold" lengthAdjust="spacingAndGlyphs" textLength="108" x="26" y="2052.9058">[type = RECTIFY]</text><polygon fill="#A80036" points="1050.5,2088.7656,1060.5,2092.7656,1050.5,2096.7656,1054.5,2092.7656" style="stroke: #A80036; stroke-width: 1.0;"/><line style="stroke: #A80036; stroke-width: 1.0;" x1="572.5" x2="1056.5" y1="2092.7656" y2="2092.7656"/><text fill="#000000" font-family="sans-serif" font-size="13" lengthAdjust="spacingAndGlyphs" textLength="248" x="579.5" y="2072.5669">Re-issue credential with corrected data</text><text fill="#000000" font-family="sans-serif" font-size="13" lengthAdjust="spacingAndGlyphs" textLength="112" x="579.5" y="2087.6997">(see #5 Renewal)</text><line style="stroke: #000000; stroke-width: 1.0; stroke-dasharray: 2.0,2.0;" x1="21" x2="1208" y1="2101.7656" y2="2101.7656"/><text fill="#000000" font-family="sans-serif" font-size="11" font-weight="bold" lengthAdjust="spacingAndGlyphs" textLength="95" x="26" y="2111.9761">[type = ERASE]</text><polygon fill="#A80036" points="1050.5,2147.8359,1060.5,2151.8359,1050.5,2155.8359,1054.5,2151.8359" style="stroke: #A80036; stroke-width: 1.0;"/><line style="stroke: #A80036; stroke-width: 1.0;" x1="572.5" x2="1056.5" y1="2151.8359" y2="2151.8359"/><text fill="#000000" font-family="sans-serif" font-size="13" lengthAdjust="spacingAndGlyphs" textLength="244" x="579.5" y="2131.6372">Revoke credential + delete references</text><text fill="#000000" font-family="sans-serif" font-size="13" lengthAdjust="spacingAndGlyphs" textLength="199" x="579.5" y="2146.77">(see Lifecycle-1 + #6 Deletion)</text><path d="M393,2164.8359 L393,2204.8359 L747,2204.8359 L747,2174.8359 L737,2164.8359 L393,2164.8359 " fill="#F5DEB3" filter="url(#f1buti1hgh01su)" style="stroke: #A80036; stroke-width: 1.0;"/><path d="M737,2164.8359 L737,2174.8359 L747,2174.8359 L737,2164.8359 " fill="#F5DEB3" style="stroke: #A80036; stroke-width: 1.0;"/><text fill="#000000" font-family="sans-serif" font-size="13" lengthAdjust="spacingAndGlyphs" textLength="320" x="399" y="2181.9028">[SPEC] Erasure is balanced against legal retention</text><text fill="#000000" font-family="sans-serif" font-size="13" lengthAdjust="spacingAndGlyphs" textLength="333" x="399" y="2197.0356">minimal audit log is kept per regulatory requirement</text><line style="stroke: #000000; stroke-width: 1.0; stroke-dasharray: 2.0,2.0;" x1="21" x2="1208" y1="2215.1016" y2="2215.1016"/><text fill="#000000" font-family="sans-serif" font-size="11" font-weight="bold" lengthAdjust="spacingAndGlyphs" textLength="194" x="26" y="2225.312">[type = RESTRICT (PDPA s.34)]</text><line style="stroke: #A80036; stroke-width: 1.0;" x1="572.5" x2="614.5" y1="2250.0391" y2="2250.0391"/><line style="stroke: #A80036; stroke-width: 1.0;" x1="614.5" x2="614.5" y1="2250.0391" y2="2263.0391"/><line style="stroke: #A80036; stroke-width: 1.0;" x1="573.5" x2="614.5" y1="2263.0391" y2="2263.0391"/><polygon fill="#A80036" points="583.5,2259.0391,573.5,2263.0391,583.5,2267.0391,579.5,2263.0391" style="stroke: #A80036; stroke-width: 1.0;"/><text fill="#000000" font-family="sans-serif" font-size="13" lengthAdjust="spacingAndGlyphs" textLength="375" x="579.5" y="2244.9731">Flag data as RESTRICTED - keep but stop active processing</text><path d="M471.5,2278.0391 L541.5,2278.0391 L541.5,2285.0391 L531.5,2295.0391 L471.5,2295.0391 L471.5,2278.0391 " fill="#EEEEEE" style="stroke: #000000; stroke-width: 1.0;"/><rect fill="none" height="46.2656" style="stroke: #000000; stroke-width: 2.0;" width="726.5" x="471.5" y="2278.0391"/><text fill="#000000" font-family="sans-serif" font-size="13" font-weight="bold" lengthAdjust="spacingAndGlyphs" textLength="25" x="486.5" y="2291.106">opt</text><text fill="#000000" font-family="sans-serif" font-size="11" font-weight="bold" lengthAdjust="spacingAndGlyphs" textLength="205" x="556.5" y="2290.2495">[Restrict credential use as well]</text><polygon fill="#A80036" points="1050.5,2312.3047,1060.5,2316.3047,1050.5,2320.3047,1054.5,2316.3047" style="stroke: #A80036; stroke-width: 1.0;"/><line style="stroke: #A80036; stroke-width: 1.0;" x1="572.5" x2="1056.5" y1="2316.3047" y2="2316.3047"/><text fill="#000000" font-family="sans-serif" font-size="13" lengthAdjust="spacingAndGlyphs" textLength="388" x="579.5" y="2311.2388">Suspend credential (see Lifecycle-1) - temporarily not usable</text><path d="M358,2336.3047 L358,2376.3047 L783,2376.3047 L783,2346.3047 L773,2336.3047 L358,2336.3047 " fill="#F5DEB3" filter="url(#f1buti1hgh01su)" style="stroke: #A80036; stroke-width: 1.0;"/><path d="M773,2336.3047 L773,2346.3047 L783,2346.3047 L773,2336.3047 " fill="#F5DEB3" style="stroke: #A80036; stroke-width: 1.0;"/><text fill="#000000" font-family="sans-serif" font-size="13" lengthAdjust="spacingAndGlyphs" textLength="241" x="364" y="2353.3716">[SPEC] Restriction is temporary (s.34)</text><text fill="#000000" font-family="sans-serif" font-size="13" lengthAdjust="spacingAndGlyphs" textLength="404" x="364" y="2368.5044">e.g. pause processing while a rectify / object dispute is resolved</text><line style="stroke: #000000; stroke-width: 1.0; stroke-dasharray: 2.0,2.0;" x1="21" x2="1208" y1="2386.5703" y2="2386.5703"/><text fill="#000000" font-family="sans-serif" font-size="11" font-weight="bold" lengthAdjust="spacingAndGlyphs" textLength="137" x="26" y="2396.7808">[type = PORTABILITY]</text><polygon fill="#A80036" points="125.5,2417.5078,115.5,2421.5078,125.5,2425.5078,121.5,2421.5078" style="stroke: #A80036; stroke-width: 1.0;"/><line style="stroke: #A80036; stroke-width: 1.0;" x1="119.5" x2="571.5" y1="2421.5078" y2="2421.5078"/><text fill="#000000" font-family="sans-serif" font-size="13" lengthAdjust="spacingAndGlyphs" textLength="315" x="131.5" y="2416.4419">Export personal data in machine-readable format</text><line style="stroke: #000000; stroke-width: 1.0; stroke-dasharray: 2.0,2.0;" x1="21" x2="1208" y1="2430.5078" y2="2430.5078"/><text fill="#000000" font-family="sans-serif" font-size="11" font-weight="bold" lengthAdjust="spacingAndGlyphs" textLength="103" x="26" y="2440.7183">[type = OBJECT]</text><line style="stroke: #A80036; stroke-width: 1.0;" x1="572.5" x2="614.5" y1="2465.4453" y2="2465.4453"/><line style="stroke: #A80036; stroke-width: 1.0;" x1="614.5" x2="614.5" y1="2465.4453" y2="2478.4453"/><line style="stroke: #A80036; stroke-width: 1.0;" x1="573.5" x2="614.5" y1="2478.4453" y2="2478.4453"/><polygon fill="#A80036" points="583.5,2474.4453,573.5,2478.4453,583.5,2482.4453,579.5,2478.4453" style="stroke: #A80036; stroke-width: 1.0;"/><text fill="#000000" font-family="sans-serif" font-size="13" lengthAdjust="spacingAndGlyphs" textLength="264" x="579.5" y="2460.3794">Stop processing for the objected purpose</text><line style="stroke: #A80036; stroke-width: 1.0;" x1="572.5" x2="614.5" y1="2529.7109" y2="2529.7109"/><line style="stroke: #A80036; stroke-width: 1.0;" x1="614.5" x2="614.5" y1="2529.7109" y2="2542.7109"/><line style="stroke: #A80036; stroke-width: 1.0;" x1="573.5" x2="614.5" y1="2542.7109" y2="2542.7109"/><polygon fill="#A80036" points="583.5,2538.7109,573.5,2542.7109,583.5,2546.7109,579.5,2542.7109" style="stroke: #A80036; stroke-width: 1.0;"/><text fill="#000000" font-family="sans-serif" font-size="13" lengthAdjust="spacingAndGlyphs" textLength="222" x="579.5" y="2509.5122">[AUDIT LOG] Store DSAR fulfilment</text><text fill="#000000" font-family="sans-serif" font-size="13" lengthAdjust="spacingAndGlyphs" textLength="171" x="579.5" y="2524.645">type , fulfilledAt , withinSLA</text><polygon fill="#A80036" points="125.5,2567.8438,115.5,2571.8438,125.5,2575.8438,121.5,2571.8438" style="stroke: #A80036; stroke-width: 1.0;"/><line style="stroke: #A80036; stroke-width: 1.0; stroke-dasharray: 2.0,2.0;" x1="119.5" x2="571.5" y1="2571.8438" y2="2571.8438"/><text fill="#000000" font-family="sans-serif" font-size="13" lengthAdjust="spacingAndGlyphs" textLength="165" x="131.5" y="2566.7778">DSAR result + timestamp</text><path d="M29,2584.8438 L29,2654.8438 L656,2654.8438 L656,2594.8438 L646,2584.8438 L29,2584.8438 " fill="#F5DEB3" filter="url(#f1buti1hgh01su)" style="stroke: #A80036; stroke-width: 1.0;"/><path d="M646,2584.8438 L646,2594.8438 L656,2594.8438 L646,2584.8438 " fill="#F5DEB3" style="stroke: #A80036; stroke-width: 1.0;"/><text fill="#000000" font-family="sans-serif" font-size="13" lengthAdjust="spacingAndGlyphs" textLength="123" x="62.75" y="2601.9106">[SPEC] PDPA notes</text><text fill="#000000" font-family="sans-serif" font-size="13" lengthAdjust="spacingAndGlyphs" textLength="396" x="62.75" y="2617.0435">Lawful basis other than consent may limit erasure / withdrawal</text><text fill="#000000" font-family="sans-serif" font-size="13" lengthAdjust="spacingAndGlyphs" textLength="540" x="62.75" y="2632.1763">Withdrawing consent does not affect lawfulness of processing done before withdrawal</text><text fill="#000000" font-family="sans-serif" font-size="13" lengthAdjust="spacingAndGlyphs" textLength="547" x="62.75" y="2647.3091">Responses must meet the PDPA SLA (POC uses 30-day auto-approve for VP consent)</text><!--MD5=[dda517e752c3d0e82a63ae17d0176f60]
@startuml
title PDPA - Consent Withdrawal and Data Subject Rights (DSAR)

participant "Holder (Mobile Wallet)" as App #lightblue
participant "Portal Center / Backend" as Backend #lightgreen
participant "Credential Platform (Procivis Core)" as Core #orange
participant "Verifier System (data controller)" as Verifier

note over App,Backend #wheat:[SPEC] PDPA rights covered\nPart A - Withdraw VP consent (data already shared with a verifier)  [POC-accurate]\nPart B - Withdraw issuance consent (may trigger revoke)  [overview]\nPart C - Data Subject Rights: access / rectify / erase / restrict / portability / object (s.30-36)  [overview]

note over App,Core #orange: A. Withdraw VP consent - data already shared with a verifier  [POC-accurate]
note over App,Backend #lightblue: A1. Holder requests withdrawal of a past presentation (VP consent)
App->App: Select a past presentation to withdraw\nproofId , verifier
App->Core: GET /api/proof-request/v1/{proofId}\n(fetch proof schema name / details)
Core- ->App: Proof details (schema name)
App->Backend: POST /api/portal/withdraw-consent\nproofId , verifierName , verifierOrgId , holderOrgId , reason

note over Backend #lightgreen: A2. Portal records the withdrawal request
Backend->Backend: [DATA STORE] Insert consent_withdrawals\nid , proofId , holderOrgId , verifierOrgId , verifierName , reason\nstatus = PENDING , requestedAt
Backend->Backend: [AUDIT LOG] Store consent withdrawal requested\neventType = CONSENT_WITHDRAWAL_REQUESTED\nwithdrawalId , proofId , holderOrgId , requestedAt
Backend- ->App: withdrawalId , status = PENDING , requestedAt

note over Backend,Verifier #lightgreen: A3. Portal notifies the Verifier (data controller) via webhook
Backend->Verifier: Webhook - consent withdrawn\nwithdrawalId , proofId , holder , reason
Backend->Backend: [DATA STORE] Update consent_withdrawals\nwebhook_sent_at , webhook_status = SENT

note over Verifier,Backend #lightgreen: A4. Verifier acts on the withdrawal
alt Verifier deletes the shared data
    Verifier->Verifier: Delete stored VP / disclosed claims for proofId
    Verifier->Backend: POST /api/portal/withdraw-consent/{withdrawalId}/callback\nstatus = DELETED
    Backend->Backend: [DATA STORE] Update status = ACKNOWLEDGED -> DELETED\ndeletedAt
    Backend->Backend: [AUDIT LOG] Store consent withdrawal completed\neventType = CONSENT_WITHDRAWAL_DELETED\nwithdrawalId , deletedAt
    Backend->App: Notify status = DELETED
else Verifier rejects (overriding lawful basis to retain)
    Verifier->Backend: POST /api/portal/withdraw-consent/{withdrawalId}/callback\nstatus = REJECTED , rejectReason
    Backend->Backend: [DATA STORE] Update status = REJECTED , reject_reason
    Backend->Backend: [AUDIT LOG] eventType = CONSENT_WITHDRAWAL_REJECTED
    Backend->App: Notify status = REJECTED (with reason)
else No verifier response within 30 days (auto-approve)
    Backend->Backend: Scheduler auto-marks status = DELETED , auto_approved = 1\n(PENDING / ACKNOWLEDGED for 30 days)
    Backend->Backend: [AUDIT LOG] eventType = CONSENT_WITHDRAWAL_AUTO_APPROVED
    Backend->App: Notify status = DELETED (auto-approved)
end

note over App,Core #orange: B. (overview) Withdraw ISSUANCE consent - may trigger credential revoke
note over App,Core #wheat:[SPEC] Different from Part A:\nPart A withdraws data already SHARED with a verifier\nPart B withdraws the lawful basis for HOLDING the credential itself
App->Backend: Withdraw issuance consent\ncredentialId , reason = CONSENT_WITHDRAWN
Backend->Backend: Check lawful basis\nis consent the ONLY basis for this credential?
alt Consent is the only lawful basis
    Backend->Core: Revoke credential\n(POST /api/credential/v1/{id}/revoke) - see Lifecycle-1
    Backend->Backend: [AUDIT LOG] eventType = CREDENTIAL_REVOKED_CONSENT_WITHDRAWN
else Other lawful basis (e.g. legal duty)
    Backend->Backend: Keep credential\nstop only the consent-based processing
    Backend->Backend: [AUDIT LOG] eventType = CONSENT_WITHDRAWN_PROCESSING_STOPPED
end

note over App,Core #orange: C. (overview) Data Subject Rights (DSAR) - PDPA s.30-36
App->Backend: DSAR request\ntype = ACCESS / RECTIFY / ERASE / RESTRICT / PORTABILITY / OBJECT
Backend->Backend: Verify holder identity\n[DATA STORE] Log DSAR ticket (type , requestedAt , SLA)
alt type = ACCESS
    Backend->App: Provide copy of personal data + processing / audit records
else type = RECTIFY
    Backend->Core: Re-issue credential with corrected data\n(see #5 Renewal)
else type = ERASE
    Backend->Core: Revoke credential + delete references\n(see Lifecycle-1 + #6 Deletion)
    note over Backend #wheat:[SPEC] Erasure is balanced against legal retention\nminimal audit log is kept per regulatory requirement
else type = RESTRICT (PDPA s.34)
    Backend->Backend: Flag data as RESTRICTED - keep but stop active processing
    opt Restrict credential use as well
        Backend->Core: Suspend credential (see Lifecycle-1) - temporarily not usable
    end
    note over Backend #wheat:[SPEC] Restriction is temporary (s.34)\ne.g. pause processing while a rectify / object dispute is resolved
else type = PORTABILITY
    Backend->App: Export personal data in machine-readable format
else type = OBJECT
    Backend->Backend: Stop processing for the objected purpose
end
Backend->Backend: [AUDIT LOG] Store DSAR fulfilment\ntype , fulfilledAt , withinSLA
Backend- ->App: DSAR result + timestamp

note over App,Backend #wheat:[SPEC] PDPA notes\nLawful basis other than consent may limit erasure / withdrawal\nWithdrawing consent does not affect lawfulness of processing done before withdrawal\nResponses must meet the PDPA SLA (POC uses 30-day auto-approve for VP consent)

@enduml

PlantUML version 1.2020.02(Sun Mar 01 10:22:07 UTC 2020)
(GPL source distribution)
Java Runtime: OpenJDK Runtime Environment
JVM: OpenJDK 64-Bit Server VM
Java Version: 17.0.19+10
Operating System: Linux
Default Encoding: UTF-8
Language: en
Country: null
--></g></svg>