<?xml version="1.0" encoding="UTF-8" standalone="no"?><svg xmlns="http://www.w3.org/2000/svg" xmlns:xlink="http://www.w3.org/1999/xlink" contentScriptType="application/ecmascript" contentStyleType="text/css" height="739px" preserveAspectRatio="none" style="width:1661px;height:739px;" version="1.1" viewBox="0 0 1661 739" width="1661px" zoomAndPan="magnify"><defs><filter height="300%" id="fivclpts2yucw" width="300%" x="-1" y="-1"><feGaussianBlur result="blurOut" stdDeviation="2.0"/><feColorMatrix in="blurOut" result="blurOut2" type="matrix" values="0 0 0 0 0 0 0 0 0 0 0 0 0 0 0 0 0 0 .4 0"/><feOffset dx="4.0" dy="4.0" in="blurOut2" result="blurOut3"/><feBlend in="SourceGraphic" in2="blurOut3" mode="normal"/></filter></defs><g><text fill="#000000" font-family="sans-serif" font-size="18" lengthAdjust="spacingAndGlyphs" textLength="660" x="501" y="26.708">Multi-Core VCVP ขั้นที่ 2 : ตรวจสอบข้าม Core (Cross-Core Verification)</text><rect fill="#D6E4FF" height="682.8203" style="stroke: #A80036; stroke-width: 1.0;" width="461.5" x="420" y="38.9531"/><text fill="#000000" font-family="sans-serif" font-size="13" font-weight="bold" lengthAdjust="spacingAndGlyphs" textLength="218" x="541.75" y="51.02">Orchestration Layer (ตัวกลาง)</text><rect fill="#E7F5E9" height="682.8203" style="stroke: #A80036; stroke-width: 1.0;" width="233" x="897" y="38.9531"/><text fill="#000000" font-family="sans-serif" font-size="13" font-weight="bold" lengthAdjust="spacingAndGlyphs" textLength="89" x="969" y="51.02">Core Engine</text><rect fill="#FFFFFF" filter="url(#fivclpts2yucw)" height="459.9922" style="stroke: #A80036; stroke-width: 1.0;" width="10" x="470" y="220.6484"/><rect fill="#FFFFFF" filter="url(#fivclpts2yucw)" height="401.7266" style="stroke: #A80036; stroke-width: 1.0;" width="10" x="585.5" y="249.7813"/><rect fill="#FFFFFF" filter="url(#fivclpts2yucw)" height="343.4609" style="stroke: #A80036; stroke-width: 1.0;" width="10" x="816.5" y="278.9141"/><rect fill="#FFFFFF" filter="url(#fivclpts2yucw)" height="285.1953" style="stroke: #A80036; stroke-width: 1.0;" width="10" x="1008.5" y="308.0469"/><line style="stroke: #A80036; stroke-width: 1.0; stroke-dasharray: 5.0,5.0;" x1="103" x2="103" y1="121.25" y2="727.7734"/><line style="stroke: #A80036; stroke-width: 1.0; stroke-dasharray: 5.0,5.0;" x1="289" x2="289" y1="121.25" y2="727.7734"/><line style="stroke: #A80036; stroke-width: 1.0; stroke-dasharray: 5.0,5.0;" x1="475" x2="475" y1="121.25" y2="727.7734"/><line style="stroke: #A80036; stroke-width: 1.0; stroke-dasharray: 5.0,5.0;" x1="590" x2="590" y1="121.25" y2="727.7734"/><line style="stroke: #A80036; stroke-width: 1.0; stroke-dasharray: 5.0,5.0;" x1="821.5" x2="821.5" y1="121.25" y2="727.7734"/><line style="stroke: #A80036; stroke-width: 1.0; stroke-dasharray: 5.0,5.0;" x1="1013" x2="1013" y1="121.25" y2="727.7734"/><line style="stroke: #A80036; stroke-width: 1.0; stroke-dasharray: 5.0,5.0;" x1="1294" x2="1294" y1="121.25" y2="727.7734"/><line style="stroke: #A80036; stroke-width: 1.0; stroke-dasharray: 5.0,5.0;" x1="1558" x2="1558" y1="121.25" y2="727.7734"/><text fill="#000000" font-family="sans-serif" font-size="14" lengthAdjust="spacingAndGlyphs" textLength="160" x="20" y="117.9482">ประชาชน (Holder Wallet)</text><ellipse cx="103" cy="47.9531" fill="#FEFECE" filter="url(#fivclpts2yucw)" rx="8" ry="8" style="stroke: #A80036; stroke-width: 2.0;"/><path d="M103,55.9531 L103,82.9531 M90,63.9531 L116,63.9531 M103,82.9531 L90,97.9531 M103,82.9531 L116,97.9531 " fill="none" filter="url(#fivclpts2yucw)" style="stroke: #A80036; stroke-width: 2.0;"/><rect fill="#FEFECE" filter="url(#fivclpts2yucw)" height="30.2969" style="stroke: #A80036; stroke-width: 1.5;" width="182" x="196" y="85.9531"/><text fill="#000000" font-family="sans-serif" font-size="14" lengthAdjust="spacingAndGlyphs" textLength="168" x="203" y="105.9482">Portal Center (Verifier UI)</text><rect fill="#FEFECE" filter="url(#fivclpts2yucw)" height="30.2969" style="stroke: #A80036; stroke-width: 1.5;" width="98" x="424" y="85.9531"/><text fill="#000000" font-family="sans-serif" font-size="14" lengthAdjust="spacingAndGlyphs" textLength="84" x="431" y="105.9482">API Gateway</text><rect fill="#FEFECE" filter="url(#fivclpts2yucw)" height="30.2969" style="stroke: #A80036; stroke-width: 1.5;" width="105" x="536" y="85.9531"/><text fill="#000000" font-family="sans-serif" font-size="14" lengthAdjust="spacingAndGlyphs" textLength="91" x="543" y="105.9482">Smart Router</text><rect fill="#FEFECE" filter="url(#fivclpts2yucw)" height="30.2969" style="stroke: #A80036; stroke-width: 1.5;" width="108" x="765.5" y="85.9531"/><text fill="#000000" font-family="sans-serif" font-size="14" lengthAdjust="spacingAndGlyphs" textLength="94" x="772.5" y="105.9482">Adapter Layer</text><rect fill="#FEFECE" filter="url(#fivclpts2yucw)" height="30.2969" style="stroke: #A80036; stroke-width: 1.5;" width="221" x="901" y="85.9531"/><text fill="#000000" font-family="sans-serif" font-size="14" lengthAdjust="spacingAndGlyphs" textLength="207" x="908" y="105.9482">Core B (Vendor อื่น · สำรอง)</text><rect fill="#FEFECE" filter="url(#fivclpts2yucw)" height="30.2969" style="stroke: #A80036; stroke-width: 1.5;" width="313" x="1136" y="85.9531"/><text fill="#000000" font-family="sans-serif" font-size="14" lengthAdjust="spacingAndGlyphs" textLength="299" x="1143" y="105.9482">เว็บสาธารณะ Issuer (did.json + Revocation)</text><rect fill="#FEFECE" filter="url(#fivclpts2yucw)" height="30.2969" style="stroke: #A80036; stroke-width: 1.5;" width="187" x="1463" y="85.9531"/><text fill="#000000" font-family="sans-serif" font-size="14" lengthAdjust="spacingAndGlyphs" textLength="173" x="1470" y="105.9482">Trust List (หน่วยงานกลาง)</text><rect fill="#FFFFFF" filter="url(#fivclpts2yucw)" height="459.9922" style="stroke: #A80036; stroke-width: 1.0;" width="10" x="470" y="220.6484"/><rect fill="#FFFFFF" filter="url(#fivclpts2yucw)" height="401.7266" style="stroke: #A80036; stroke-width: 1.0;" width="10" x="585.5" y="249.7813"/><rect fill="#FFFFFF" filter="url(#fivclpts2yucw)" height="343.4609" style="stroke: #A80036; stroke-width: 1.0;" width="10" x="816.5" y="278.9141"/><rect fill="#FFFFFF" filter="url(#fivclpts2yucw)" height="285.1953" style="stroke: #A80036; stroke-width: 1.0;" width="10" x="1008.5" y="308.0469"/><path d="M8,136.25 L8,161.25 L1109,161.25 L1109,146.25 L1099,136.25 L8,136.25 " fill="#FBFB77" filter="url(#fivclpts2yucw)" style="stroke: #A80036; stroke-width: 1.0;"/><path d="M1099,136.25 L1099,146.25 L1109,146.25 L1099,136.25 " fill="#FBFB77" style="stroke: #A80036; stroke-width: 1.0;"/><text fill="#000000" font-family="sans-serif" font-size="13" lengthAdjust="spacingAndGlyphs" textLength="258" x="423" y="153.3169">บัตรออกจาก Core A แต่ตรวจที่ Core B</text><polygon fill="#A80036" points="277,187.5156,287,191.5156,277,195.5156,281,191.5156" style="stroke: #A80036; stroke-width: 1.0;"/><line style="stroke: #A80036; stroke-width: 1.0;" x1="103" x2="283" y1="191.5156" y2="191.5156"/><text fill="#000000" font-family="sans-serif" font-size="13" lengthAdjust="spacingAndGlyphs" textLength="159" x="110" y="186.4497">แสดงบัตร (Presentation)</text><polygon fill="#A80036" points="458,216.6484,468,220.6484,458,224.6484,462,220.6484" style="stroke: #A80036; stroke-width: 1.0;"/><line style="stroke: #A80036; stroke-width: 1.0;" x1="289" x2="464" y1="220.6484" y2="220.6484"/><text fill="#000000" font-family="sans-serif" font-size="13" lengthAdjust="spacingAndGlyphs" textLength="162" x="296" y="215.5825">POST /verify  (Unified API)</text><polygon fill="#A80036" points="573.5,245.7813,583.5,249.7813,573.5,253.7813,577.5,249.7813" style="stroke: #A80036; stroke-width: 1.0;"/><line style="stroke: #A80036; stroke-width: 1.0;" x1="480" x2="579.5" y1="249.7813" y2="249.7813"/><text fill="#000000" font-family="sans-serif" font-size="13" lengthAdjust="spacingAndGlyphs" textLength="48" x="487" y="244.7153">ส่งต่อ</text><polygon fill="#A80036" points="804.5,274.9141,814.5,278.9141,804.5,282.9141,808.5,278.9141" style="stroke: #A80036; stroke-width: 1.0;"/><line style="stroke: #A80036; stroke-width: 1.0;" x1="595.5" x2="810.5" y1="278.9141" y2="278.9141"/><text fill="#000000" font-family="sans-serif" font-size="13" lengthAdjust="spacingAndGlyphs" textLength="202" x="602.5" y="273.8481">ตรวจที่ Core B (Load balance)</text><polygon fill="#A80036" points="996.5,304.0469,1006.5,308.0469,996.5,312.0469,1000.5,308.0469" style="stroke: #A80036; stroke-width: 1.0;"/><line style="stroke: #A80036; stroke-width: 1.0;" x1="826.5" x2="1002.5" y1="308.0469" y2="308.0469"/><text fill="#000000" font-family="sans-serif" font-size="13" lengthAdjust="spacingAndGlyphs" textLength="163" x="833.5" y="302.981">แปลงเป็น API ของ Core B</text><path d="M900,321.0469 L900,346.0469 L1123,346.0469 L1123,331.0469 L1113,321.0469 L900,321.0469 " fill="#FBFB77" filter="url(#fivclpts2yucw)" style="stroke: #A80036; stroke-width: 1.0;"/><path d="M1113,321.0469 L1113,331.0469 L1123,331.0469 L1113,321.0469 " fill="#FBFB77" style="stroke: #A80036; stroke-width: 1.0;"/><text fill="#000000" font-family="sans-serif" font-size="13" lengthAdjust="spacingAndGlyphs" textLength="202" x="906" y="338.1138">ตรวจโดยไม่แตะ DB ของ Core A</text><polygon fill="#A80036" points="1282.5,372.3125,1292.5,376.3125,1282.5,380.3125,1286.5,376.3125" style="stroke: #A80036; stroke-width: 1.0;"/><line style="stroke: #A80036; stroke-width: 1.0;" x1="1018.5" x2="1288.5" y1="376.3125" y2="376.3125"/><text fill="#000000" font-family="sans-serif" font-size="13" lengthAdjust="spacingAndGlyphs" textLength="158" x="1025.5" y="371.2466">GET /.well-known/did.json</text><polygon fill="#A80036" points="1029.5,401.4453,1019.5,405.4453,1029.5,409.4453,1025.5,405.4453" style="stroke: #A80036; stroke-width: 1.0;"/><line style="stroke: #A80036; stroke-width: 1.0; stroke-dasharray: 2.0,2.0;" x1="1023.5" x2="1293.5" y1="405.4453" y2="405.4453"/><text fill="#000000" font-family="sans-serif" font-size="13" lengthAdjust="spacingAndGlyphs" textLength="172" x="1035.5" y="400.3794">DID Document (Public Key)</text><line style="stroke: #A80036; stroke-width: 1.0;" x1="1018.5" x2="1060.5" y1="434.5781" y2="434.5781"/><line style="stroke: #A80036; stroke-width: 1.0;" x1="1060.5" x2="1060.5" y1="434.5781" y2="447.5781"/><line style="stroke: #A80036; stroke-width: 1.0;" x1="1019.5" x2="1060.5" y1="447.5781" y2="447.5781"/><polygon fill="#A80036" points="1029.5,443.5781,1019.5,447.5781,1029.5,451.5781,1025.5,447.5781" style="stroke: #A80036; stroke-width: 1.0;"/><text fill="#000000" font-family="sans-serif" font-size="13" lengthAdjust="spacingAndGlyphs" textLength="188" x="1025.5" y="429.5122">ตรวจลายเซ็นด้วย Public Key</text><polygon fill="#A80036" points="1546.5,472.7109,1556.5,476.7109,1546.5,480.7109,1550.5,476.7109" style="stroke: #A80036; stroke-width: 1.0;"/><line style="stroke: #A80036; stroke-width: 1.0;" x1="1018.5" x2="1552.5" y1="476.7109" y2="476.7109"/><text fill="#000000" font-family="sans-serif" font-size="13" lengthAdjust="spacingAndGlyphs" textLength="180" x="1025.5" y="471.645">ตรวจสอบ Issuer ใน Trust List</text><polygon fill="#A80036" points="1029.5,501.8438,1019.5,505.8438,1029.5,509.8438,1025.5,505.8438" style="stroke: #A80036; stroke-width: 1.0;"/><line style="stroke: #A80036; stroke-width: 1.0; stroke-dasharray: 2.0,2.0;" x1="1023.5" x2="1557.5" y1="505.8438" y2="505.8438"/><text fill="#000000" font-family="sans-serif" font-size="13" lengthAdjust="spacingAndGlyphs" textLength="251" x="1035.5" y="500.7778">✓ ตรวจสอบผ่าน เป็นหน่วยงานทางการ</text><polygon fill="#A80036" points="1282.5,530.9766,1292.5,534.9766,1282.5,538.9766,1286.5,534.9766" style="stroke: #A80036; stroke-width: 1.0;"/><line style="stroke: #A80036; stroke-width: 1.0;" x1="1018.5" x2="1288.5" y1="534.9766" y2="534.9766"/><text fill="#000000" font-family="sans-serif" font-size="13" lengthAdjust="spacingAndGlyphs" textLength="118" x="1025.5" y="529.9106">ตรวจสอบสถานะ VC</text><polygon fill="#A80036" points="1029.5,560.1094,1019.5,564.1094,1029.5,568.1094,1025.5,564.1094" style="stroke: #A80036; stroke-width: 1.0;"/><line style="stroke: #A80036; stroke-width: 1.0; stroke-dasharray: 2.0,2.0;" x1="1023.5" x2="1293.5" y1="564.1094" y2="564.1094"/><text fill="#000000" font-family="sans-serif" font-size="13" lengthAdjust="spacingAndGlyphs" textLength="143" x="1035.5" y="559.0435">✓ ยังไม่ถูกเพิกถอน</text><polygon fill="#A80036" points="837.5,589.2422,827.5,593.2422,837.5,597.2422,833.5,593.2422" style="stroke: #A80036; stroke-width: 1.0;"/><line style="stroke: #A80036; stroke-width: 1.0; stroke-dasharray: 2.0,2.0;" x1="831.5" x2="1012.5" y1="593.2422" y2="593.2422"/><text fill="#000000" font-family="sans-serif" font-size="13" lengthAdjust="spacingAndGlyphs" textLength="114" x="843.5" y="588.1763">ผลตรวจ = ผ่าน ✓</text><polygon fill="#A80036" points="606.5,618.375,596.5,622.375,606.5,626.375,602.5,622.375" style="stroke: #A80036; stroke-width: 1.0;"/><line style="stroke: #A80036; stroke-width: 1.0; stroke-dasharray: 2.0,2.0;" x1="600.5" x2="820.5" y1="622.375" y2="622.375"/><text fill="#000000" font-family="sans-serif" font-size="13" lengthAdjust="spacingAndGlyphs" textLength="56" x="612.5" y="617.3091">ผลลัพธ์</text><polygon fill="#A80036" points="491,647.5078,481,651.5078,491,655.5078,487,651.5078" style="stroke: #A80036; stroke-width: 1.0;"/><line style="stroke: #A80036; stroke-width: 1.0; stroke-dasharray: 2.0,2.0;" x1="485" x2="589.5" y1="651.5078" y2="651.5078"/><text fill="#000000" font-family="sans-serif" font-size="13" lengthAdjust="spacingAndGlyphs" textLength="56" x="497" y="646.4419">ผลลัพธ์</text><polygon fill="#A80036" points="300,676.6406,290,680.6406,300,684.6406,296,680.6406" style="stroke: #A80036; stroke-width: 1.0;"/><line style="stroke: #A80036; stroke-width: 1.0; stroke-dasharray: 2.0,2.0;" x1="294" x2="474" y1="680.6406" y2="680.6406"/><text fill="#000000" font-family="sans-serif" font-size="13" lengthAdjust="spacingAndGlyphs" textLength="112" x="306" y="675.5747">ตรวจสอบสำเร็จ</text><polygon fill="#A80036" points="114,705.7734,104,709.7734,114,713.7734,110,709.7734" style="stroke: #A80036; stroke-width: 1.0;"/><line style="stroke: #A80036; stroke-width: 1.0; stroke-dasharray: 2.0,2.0;" x1="108" x2="288" y1="709.7734" y2="709.7734"/><text fill="#000000" font-family="sans-serif" font-size="13" lengthAdjust="spacingAndGlyphs" textLength="120" x="120" y="704.7075">ยืนยันตัวตนผ่าน</text><!--MD5=[02b9567bffc74c95f8e1010a9b814604]
@startuml
hide footbox

title Multi-Core VCVP ขั้นที่ 2 : ตรวจสอบข้าม Core (Cross-Core Verification)

actor "ประชาชน (Holder Wallet)" as Holder
participant "Portal Center (Verifier UI)" as Portal

box "Orchestration Layer (ตัวกลาง)" #d6e4ff
participant "API Gateway" as GW
participant "Smart Router" as Router
participant "Adapter Layer" as Adapter
end box

box "Core Engine" #e7f5e9
participant "Core B (Vendor อื่น · สำรอง)" as CoreB
end box

participant "เว็บสาธารณะ Issuer (did.json + Revocation)" as IssuerWeb
participant "Trust List (หน่วยงานกลาง)" as Trust

note over Holder,CoreB: บัตรออกจาก Core A แต่ตรวจที่ Core B
Holder->Portal: แสดงบัตร (Presentation)
Portal->GW: POST /verify  (Unified API)
activate GW
GW->Router: ส่งต่อ
activate Router
Router->Adapter: ตรวจที่ Core B (Load balance)
activate Adapter
Adapter->CoreB: แปลงเป็น API ของ Core B
activate CoreB
note over CoreB: ตรวจโดยไม่แตะ DB ของ Core A
CoreB->IssuerWeb: GET /.well-known/did.json
IssuerWeb- ->CoreB: DID Document (Public Key)
CoreB->CoreB: ตรวจลายเซ็นด้วย Public Key
CoreB->Trust: ตรวจสอบ Issuer ใน Trust List
Trust- ->CoreB: ✓ ตรวจสอบผ่าน เป็นหน่วยงานทางการ
CoreB->IssuerWeb: ตรวจสอบสถานะ VC
IssuerWeb- ->CoreB: ✓ ยังไม่ถูกเพิกถอน
CoreB- ->Adapter: ผลตรวจ = ผ่าน ✓
deactivate CoreB
Adapter- ->Router: ผลลัพธ์
deactivate Adapter
Router- ->GW: ผลลัพธ์
deactivate Router
GW- ->Portal: ตรวจสอบสำเร็จ
deactivate GW
Portal- ->Holder: ยืนยันตัวตนผ่าน
@enduml

PlantUML version 1.2020.02(Sun Mar 01 10:22:07 UTC 2020)
(GPL source distribution)
Java Runtime: OpenJDK Runtime Environment
JVM: OpenJDK 64-Bit Server VM
Java Version: 17.0.19+10
Operating System: Linux
Default Encoding: UTF-8
Language: en
Country: null
--></g></svg>