<?xml version="1.0" encoding="UTF-8" standalone="no"?><svg xmlns="http://www.w3.org/2000/svg" xmlns:xlink="http://www.w3.org/1999/xlink" contentScriptType="application/ecmascript" contentStyleType="text/css" height="698px" preserveAspectRatio="none" style="width:1471px;height:698px;" version="1.1" viewBox="0 0 1471 698" width="1471px" zoomAndPan="magnify"><defs><filter height="300%" id="f1v66pva2tnqm7" width="300%" x="-1" y="-1"><feGaussianBlur result="blurOut" stdDeviation="2.0"/><feColorMatrix in="blurOut" result="blurOut2" type="matrix" values="0 0 0 0 0 0 0 0 0 0 0 0 0 0 0 0 0 0 .4 0"/><feOffset dx="4.0" dy="4.0" in="blurOut2" result="blurOut3"/><feBlend in="SourceGraphic" in2="blurOut3" mode="normal"/></filter></defs><g><text fill="#000000" font-family="sans-serif" font-size="18" lengthAdjust="spacingAndGlyphs" textLength="515" x="479.5" y="26.708">Multi-Core VCVP — ขั้นที่ 1 : ออก Credential (Issuance)</text><rect fill="#D6E4FF" height="648.4531" style="stroke: #A80036; stroke-width: 1.0;" width="508" x="574" y="38.9531"/><text fill="#000000" font-family="sans-serif" font-size="13" font-weight="bold" lengthAdjust="spacingAndGlyphs" textLength="218" x="719" y="51.02">Orchestration Layer (ตัวกลาง)</text><rect fill="#E7F5E9" height="648.4531" style="stroke: #A80036; stroke-width: 1.0;" width="200" x="1121" y="38.9531"/><text fill="#000000" font-family="sans-serif" font-size="13" font-weight="bold" lengthAdjust="spacingAndGlyphs" textLength="89" x="1176.5" y="51.02">Core Engine</text><rect fill="#FFFFFF" filter="url(#f1v66pva2tnqm7)" height="330.3281" style="stroke: #A80036; stroke-width: 1.0;" width="10" x="624" y="181.5156"/><rect fill="#FFFFFF" filter="url(#f1v66pva2tnqm7)" height="229.9297" style="stroke: #A80036; stroke-width: 1.0;" width="10" x="851" y="252.7813"/><rect fill="#FFFFFF" filter="url(#f1v66pva2tnqm7)" height="129.5313" style="stroke: #A80036; stroke-width: 1.0;" width="10" x="1017" y="324.0469"/><rect fill="#FFFFFF" filter="url(#f1v66pva2tnqm7)" height="71.2656" style="stroke: #A80036; stroke-width: 1.0;" width="10" x="1216" y="353.1797"/><line style="stroke: #A80036; stroke-width: 1.0; stroke-dasharray: 5.0,5.0;" x1="91" x2="91" y1="121.25" y2="601.1094"/><line style="stroke: #A80036; stroke-width: 1.0; stroke-dasharray: 5.0,5.0;" x1="443.5" x2="443.5" y1="121.25" y2="601.1094"/><line style="stroke: #A80036; stroke-width: 1.0; stroke-dasharray: 5.0,5.0;" x1="629" x2="629" y1="121.25" y2="601.1094"/><line style="stroke: #A80036; stroke-width: 1.0; stroke-dasharray: 5.0,5.0;" x1="855.5" x2="855.5" y1="121.25" y2="601.1094"/><line style="stroke: #A80036; stroke-width: 1.0; stroke-dasharray: 5.0,5.0;" x1="1022" x2="1022" y1="121.25" y2="601.1094"/><line style="stroke: #A80036; stroke-width: 1.0; stroke-dasharray: 5.0,5.0;" x1="1221" x2="1221" y1="121.25" y2="601.1094"/><text fill="#000000" font-family="sans-serif" font-size="14" lengthAdjust="spacingAndGlyphs" textLength="160" x="8" y="117.9482">ประชาชน (Holder Wallet)</text><ellipse cx="91" cy="47.9531" fill="#FEFECE" filter="url(#f1v66pva2tnqm7)" rx="8" ry="8" style="stroke: #A80036; stroke-width: 2.0;"/><path d="M91,55.9531 L91,82.9531 M78,63.9531 L104,63.9531 M91,82.9531 L78,97.9531 M91,82.9531 L104,97.9531 " fill="none" filter="url(#f1v66pva2tnqm7)" style="stroke: #A80036; stroke-width: 2.0;"/><text fill="#000000" font-family="sans-serif" font-size="14" lengthAdjust="spacingAndGlyphs" textLength="160" x="8" y="613.1045">ประชาชน (Holder Wallet)</text><ellipse cx="91" cy="626.4063" fill="#FEFECE" filter="url(#f1v66pva2tnqm7)" rx="8" ry="8" style="stroke: #A80036; stroke-width: 2.0;"/><path d="M91,634.4063 L91,661.4063 M78,642.4063 L104,642.4063 M91,661.4063 L78,676.4063 M91,661.4063 L104,676.4063 " fill="none" filter="url(#f1v66pva2tnqm7)" style="stroke: #A80036; stroke-width: 2.0;"/><rect fill="#FEFECE" filter="url(#f1v66pva2tnqm7)" height="30.2969" style="stroke: #A80036; stroke-width: 1.5;" width="177" x="353.5" y="85.9531"/><text fill="#000000" font-family="sans-serif" font-size="14" lengthAdjust="spacingAndGlyphs" textLength="163" x="360.5" y="105.9482">Portal Center (Issuer UI)</text><rect fill="#FEFECE" filter="url(#f1v66pva2tnqm7)" height="30.2969" style="stroke: #A80036; stroke-width: 1.5;" width="177" x="353.5" y="600.1094"/><text fill="#000000" font-family="sans-serif" font-size="14" lengthAdjust="spacingAndGlyphs" textLength="163" x="360.5" y="620.1045">Portal Center (Issuer UI)</text><rect fill="#FEFECE" filter="url(#f1v66pva2tnqm7)" height="30.2969" style="stroke: #A80036; stroke-width: 1.5;" width="98" x="578" y="85.9531"/><text fill="#000000" font-family="sans-serif" font-size="14" lengthAdjust="spacingAndGlyphs" textLength="84" x="585" y="105.9482">API Gateway</text><rect fill="#FEFECE" filter="url(#f1v66pva2tnqm7)" height="30.2969" style="stroke: #A80036; stroke-width: 1.5;" width="98" x="578" y="600.1094"/><text fill="#000000" font-family="sans-serif" font-size="14" lengthAdjust="spacingAndGlyphs" textLength="84" x="585" y="620.1045">API Gateway</text><rect fill="#FEFECE" filter="url(#f1v66pva2tnqm7)" height="30.2969" style="stroke: #A80036; stroke-width: 1.5;" width="105" x="801.5" y="85.9531"/><text fill="#000000" font-family="sans-serif" font-size="14" lengthAdjust="spacingAndGlyphs" textLength="91" x="808.5" y="105.9482">Smart Router</text><rect fill="#FEFECE" filter="url(#f1v66pva2tnqm7)" height="30.2969" style="stroke: #A80036; stroke-width: 1.5;" width="105" x="801.5" y="600.1094"/><text fill="#000000" font-family="sans-serif" font-size="14" lengthAdjust="spacingAndGlyphs" textLength="91" x="808.5" y="620.1045">Smart Router</text><rect fill="#FEFECE" filter="url(#f1v66pva2tnqm7)" height="30.2969" style="stroke: #A80036; stroke-width: 1.5;" width="108" x="966" y="85.9531"/><text fill="#000000" font-family="sans-serif" font-size="14" lengthAdjust="spacingAndGlyphs" textLength="94" x="973" y="105.9482">Adapter Layer</text><rect fill="#FEFECE" filter="url(#f1v66pva2tnqm7)" height="30.2969" style="stroke: #A80036; stroke-width: 1.5;" width="108" x="966" y="600.1094"/><text fill="#000000" font-family="sans-serif" font-size="14" lengthAdjust="spacingAndGlyphs" textLength="94" x="973" y="620.1045">Adapter Layer</text><rect fill="#FEFECE" filter="url(#f1v66pva2tnqm7)" height="30.2969" style="stroke: #A80036; stroke-width: 1.5;" width="188" x="1125" y="85.9531"/><text fill="#000000" font-family="sans-serif" font-size="14" lengthAdjust="spacingAndGlyphs" textLength="174" x="1132" y="105.9482">Core A (Procivis · Primary)</text><rect fill="#FEFECE" filter="url(#f1v66pva2tnqm7)" height="30.2969" style="stroke: #A80036; stroke-width: 1.5;" width="188" x="1125" y="600.1094"/><text fill="#000000" font-family="sans-serif" font-size="14" lengthAdjust="spacingAndGlyphs" textLength="174" x="1132" y="620.1045">Core A (Procivis · Primary)</text><rect fill="#FFFFFF" filter="url(#f1v66pva2tnqm7)" height="330.3281" style="stroke: #A80036; stroke-width: 1.0;" width="10" x="624" y="181.5156"/><rect fill="#FFFFFF" filter="url(#f1v66pva2tnqm7)" height="229.9297" style="stroke: #A80036; stroke-width: 1.0;" width="10" x="851" y="252.7813"/><rect fill="#FFFFFF" filter="url(#f1v66pva2tnqm7)" height="129.5313" style="stroke: #A80036; stroke-width: 1.0;" width="10" x="1017" y="324.0469"/><rect fill="#FFFFFF" filter="url(#f1v66pva2tnqm7)" height="71.2656" style="stroke: #A80036; stroke-width: 1.0;" width="10" x="1216" y="353.1797"/><polygon fill="#A80036" points="432,148.3828,442,152.3828,432,156.3828,436,152.3828" style="stroke: #A80036; stroke-width: 1.0;"/><line style="stroke: #A80036; stroke-width: 1.0;" x1="91" x2="438" y1="152.3828" y2="152.3828"/><text fill="#000000" font-family="sans-serif" font-size="13" lengthAdjust="spacingAndGlyphs" textLength="186" x="98" y="147.3169">ขอรับบัตร (เช่น ใบขับขี่)</text><polygon fill="#A80036" points="612,177.5156,622,181.5156,612,185.5156,616,181.5156" style="stroke: #A80036; stroke-width: 1.0;"/><line style="stroke: #A80036; stroke-width: 1.0;" x1="444" x2="618" y1="181.5156" y2="181.5156"/><text fill="#000000" font-family="sans-serif" font-size="13" lengthAdjust="spacingAndGlyphs" textLength="161" x="451" y="176.4497">POST /issue  (Unified API)</text><line style="stroke: #A80036; stroke-width: 1.0;" x1="634" x2="676" y1="210.6484" y2="210.6484"/><line style="stroke: #A80036; stroke-width: 1.0;" x1="676" x2="676" y1="210.6484" y2="223.6484"/><line style="stroke: #A80036; stroke-width: 1.0;" x1="635" x2="676" y1="223.6484" y2="223.6484"/><polygon fill="#A80036" points="645,219.6484,635,223.6484,645,227.6484,641,223.6484" style="stroke: #A80036; stroke-width: 1.0;"/><text fill="#000000" font-family="sans-serif" font-size="13" lengthAdjust="spacingAndGlyphs" textLength="203" x="641" y="205.5825">ยืนยันตัวตน + จำกัดสิทธิ์</text><polygon fill="#A80036" points="839,248.7813,849,252.7813,839,256.7813,843,252.7813" style="stroke: #A80036; stroke-width: 1.0;"/><line style="stroke: #A80036; stroke-width: 1.0;" x1="634" x2="845" y1="252.7813" y2="252.7813"/><text fill="#000000" font-family="sans-serif" font-size="13" lengthAdjust="spacingAndGlyphs" textLength="88" x="641" y="247.7153">ส่งต่อคำขอ</text><line style="stroke: #A80036; stroke-width: 1.0;" x1="861" x2="903" y1="281.9141" y2="281.9141"/><line style="stroke: #A80036; stroke-width: 1.0;" x1="903" x2="903" y1="281.9141" y2="294.9141"/><line style="stroke: #A80036; stroke-width: 1.0;" x1="862" x2="903" y1="294.9141" y2="294.9141"/><polygon fill="#A80036" points="872,290.9141,862,294.9141,872,298.9141,868,294.9141" style="stroke: #A80036; stroke-width: 1.0;"/><text fill="#000000" font-family="sans-serif" font-size="13" lengthAdjust="spacingAndGlyphs" textLength="142" x="868" y="276.8481">เลือก Core ตาม Policy</text><polygon fill="#A80036" points="1005,320.0469,1015,324.0469,1005,328.0469,1009,324.0469" style="stroke: #A80036; stroke-width: 1.0;"/><line style="stroke: #A80036; stroke-width: 1.0;" x1="861" x2="1011" y1="324.0469" y2="324.0469"/><text fill="#000000" font-family="sans-serif" font-size="13" lengthAdjust="spacingAndGlyphs" textLength="127" x="868" y="318.981">ออกบัตรที่ Core A</text><polygon fill="#A80036" points="1204,349.1797,1214,353.1797,1204,357.1797,1208,353.1797" style="stroke: #A80036; stroke-width: 1.0;"/><line style="stroke: #A80036; stroke-width: 1.0;" x1="1027" x2="1210" y1="353.1797" y2="353.1797"/><text fill="#000000" font-family="sans-serif" font-size="13" lengthAdjust="spacingAndGlyphs" textLength="168" x="1034" y="348.1138">แปลงเป็น API ของ Procivis</text><line style="stroke: #A80036; stroke-width: 1.0;" x1="1226" x2="1268" y1="382.3125" y2="382.3125"/><line style="stroke: #A80036; stroke-width: 1.0;" x1="1268" x2="1268" y1="382.3125" y2="395.3125"/><line style="stroke: #A80036; stroke-width: 1.0;" x1="1227" x2="1268" y1="395.3125" y2="395.3125"/><polygon fill="#A80036" points="1237,391.3125,1227,395.3125,1237,399.3125,1233,395.3125" style="stroke: #A80036; stroke-width: 1.0;"/><text fill="#000000" font-family="sans-serif" font-size="13" lengthAdjust="spacingAndGlyphs" textLength="226" x="1233" y="377.2466">เซ็นด้วย Private Key (ใน DB/HSM)</text><polygon fill="#A80036" points="1038,420.4453,1028,424.4453,1038,428.4453,1034,424.4453" style="stroke: #A80036; stroke-width: 1.0;"/><line style="stroke: #A80036; stroke-width: 1.0; stroke-dasharray: 2.0,2.0;" x1="1032" x2="1220" y1="424.4453" y2="424.4453"/><text fill="#000000" font-family="sans-serif" font-size="13" lengthAdjust="spacingAndGlyphs" textLength="165" x="1044" y="419.3794">Credential Offer (QR / link)</text><polygon fill="#A80036" points="872,449.5781,862,453.5781,872,457.5781,868,453.5781" style="stroke: #A80036; stroke-width: 1.0;"/><line style="stroke: #A80036; stroke-width: 1.0; stroke-dasharray: 2.0,2.0;" x1="866" x2="1021" y1="453.5781" y2="453.5781"/><text fill="#000000" font-family="sans-serif" font-size="13" lengthAdjust="spacingAndGlyphs" textLength="56" x="878" y="448.5122">ผลลัพธ์</text><polygon fill="#A80036" points="645,478.7109,635,482.7109,645,486.7109,641,482.7109" style="stroke: #A80036; stroke-width: 1.0;"/><line style="stroke: #A80036; stroke-width: 1.0; stroke-dasharray: 2.0,2.0;" x1="639" x2="855" y1="482.7109" y2="482.7109"/><text fill="#000000" font-family="sans-serif" font-size="13" lengthAdjust="spacingAndGlyphs" textLength="56" x="651" y="477.645">ผลลัพธ์</text><polygon fill="#A80036" points="455,507.8438,445,511.8438,455,515.8438,451,511.8438" style="stroke: #A80036; stroke-width: 1.0;"/><line style="stroke: #A80036; stroke-width: 1.0; stroke-dasharray: 2.0,2.0;" x1="449" x2="628" y1="511.8438" y2="511.8438"/><text fill="#000000" font-family="sans-serif" font-size="13" lengthAdjust="spacingAndGlyphs" textLength="82" x="461" y="506.7778">ส่ง QR กลับ</text><polygon fill="#A80036" points="102,536.9766,92,540.9766,102,544.9766,98,540.9766" style="stroke: #A80036; stroke-width: 1.0;"/><line style="stroke: #A80036; stroke-width: 1.0; stroke-dasharray: 2.0,2.0;" x1="96" x2="443" y1="540.9766" y2="540.9766"/><text fill="#000000" font-family="sans-serif" font-size="13" lengthAdjust="spacingAndGlyphs" textLength="114" x="108" y="535.9106">แสดง QR ให้สแกน</text><line style="stroke: #A80036; stroke-width: 1.0;" x1="91" x2="133" y1="570.1094" y2="570.1094"/><line style="stroke: #A80036; stroke-width: 1.0;" x1="133" x2="133" y1="570.1094" y2="583.1094"/><line style="stroke: #A80036; stroke-width: 1.0;" x1="92" x2="133" y1="583.1094" y2="583.1094"/><polygon fill="#A80036" points="102,579.1094,92,583.1094,102,587.1094,98,583.1094" style="stroke: #A80036; stroke-width: 1.0;"/><text fill="#000000" font-family="sans-serif" font-size="13" lengthAdjust="spacingAndGlyphs" textLength="339" x="98" y="565.0435">เก็บ Credential ใน Wallet (ผูกกับ Holder Public Key)</text><!--MD5=[5e1946f376a302106ede3e7087b5de35]
@startuml
title Multi-Core VCVP — ขั้นที่ 1 : ออก Credential (Issuance)

actor "ประชาชน (Holder Wallet)" as Holder
participant "Portal Center (Issuer UI)" as Portal

box "Orchestration Layer (ตัวกลาง)" #d6e4ff
participant "API Gateway" as GW
participant "Smart Router" as Router
participant "Adapter Layer" as Adapter
end box

box "Core Engine" #e7f5e9
participant "Core A (Procivis · Primary)" as CoreA
end box

Holder->Portal: ขอรับบัตร (เช่น ใบขับขี่)
Portal->GW: POST /issue  (Unified API)
activate GW
GW->GW: ยืนยันตัวตน + จำกัดสิทธิ์
GW->Router: ส่งต่อคำขอ
activate Router
Router->Router: เลือก Core ตาม Policy
Router->Adapter: ออกบัตรที่ Core A
activate Adapter
Adapter->CoreA: แปลงเป็น API ของ Procivis
activate CoreA
CoreA->CoreA: เซ็นด้วย Private Key (ใน DB/HSM)
CoreA- ->Adapter: Credential Offer (QR / link)
deactivate CoreA
Adapter- ->Router: ผลลัพธ์
deactivate Adapter
Router- ->GW: ผลลัพธ์
deactivate Router
GW- ->Portal: ส่ง QR กลับ
deactivate GW
Portal- ->Holder: แสดง QR ให้สแกน
Holder->Holder: เก็บ Credential ใน Wallet (ผูกกับ Holder Public Key)
@enduml

PlantUML version 1.2020.02(Sun Mar 01 10:22:07 UTC 2020)
(GPL source distribution)
Java Runtime: OpenJDK Runtime Environment
JVM: OpenJDK 64-Bit Server VM
Java Version: 17.0.19+10
Operating System: Linux
Default Encoding: UTF-8
Language: en
Country: null
--></g></svg>